<?xml version="1.0" standalone="no"?>
<!DOCTYPE svg PUBLIC "-//W3C//DTD SVG 20010904//EN"
 "http://www.w3.org/TR/2001/REC-SVG-20010904/DTD/svg10.dtd">
<svg version="1.0" xmlns="http://www.w3.org/2000/svg"
 width="600.000000pt" height="600.000000pt" viewBox="0 0 600.000000 600.000000"
 preserveAspectRatio="xMidYMid meet">

<g transform="translate(0.000000,600.000000) scale(0.100000,-0.100000)"
fill="#000000" stroke="none">
<path d="M2880 4897 c-325 -150 -798 -382 -817 -399 -12 -12 -27 -35 -32 -52
-29 -88 -211 -907 -211 -947 0 -59 -7 -49 337 -475 209 -259 291 -354 318
-367 32 -15 85 -17 528 -17 461 0 495 1 527 19 50 26 645 768 654 814 5 25
-23 161 -99 493 -58 252 -110 471 -116 486 -6 14 -20 35 -33 47 -32 30 -881
432 -924 437 -29 4 -58 -5 -132 -39z m160 -272 c9 -11 11 -40 6 -108 -4 -66
-2 -96 7 -108 6 -9 46 -23 87 -33 94 -21 201 -73 267 -131 45 -40 55 -44 84
-38 21 4 51 24 79 53 64 65 85 76 116 55 27 -17 32 -56 10 -77 -7 -8 -40 -31
-72 -51 -84 -54 -90 -71 -49 -149 46 -87 68 -176 69 -284 1 -108 11 -120 103
-129 89 -9 102 -13 119 -40 15 -23 15 -27 0 -50 -20 -31 -41 -31 -135 -1 -41
13 -82 21 -92 19 -10 -3 -35 -40 -59 -88 -44 -89 -128 -190 -198 -239 -57 -39
-58 -62 -4 -152 38 -64 44 -80 36 -103 -7 -19 -17 -27 -40 -29 -39 -4 -56 16
-83 100 -30 90 -49 102 -127 80 -80 -22 -250 -22 -326 1 -84 25 -89 21 -150
-144 -25 -69 -124 -45 -102 25 4 11 23 44 42 73 19 29 36 68 37 85 2 29 -3 37
-53 73 -75 54 -152 150 -193 240 -33 73 -35 74 -71 75 -21 0 -61 -9 -90 -20
-88 -33 -128 -24 -128 31 0 39 20 50 105 60 113 12 121 21 122 138 1 105 30
217 77 298 32 55 21 79 -58 130 -32 20 -65 43 -72 51 -37 36 4 100 52 82 13
-5 49 -34 79 -65 34 -34 64 -55 78 -55 12 0 47 20 77 45 74 61 174 110 267
131 43 9 84 24 91 33 9 12 11 39 7 103 -7 102 2 128 44 128 16 0 34 -7 41 -15z"/>
<path d="M2849 4231 c-68 -22 -151 -66 -179 -96 l-22 -23 108 -76 c59 -42 115
-76 125 -76 31 0 39 26 45 158 8 149 13 142 -77 113z"/>
<path d="M3075 4118 c4 -73 12 -139 17 -145 19 -24 44 -13 153 64 l109 76 -35
29 c-54 47 -193 108 -242 108 -6 0 -7 -51 -2 -132z"/>
<path d="M2541 3965 c-28 -59 -51 -157 -51 -218 0 -41 3 -48 18 -43 9 3 67 19
127 36 61 18 116 37 123 42 31 26 19 40 -174 210 -21 19 -21 19 -43 -27z"/>
<path d="M3341 3926 c-52 -46 -98 -91 -103 -100 -19 -34 8 -51 128 -85 64 -18
124 -35 132 -38 36 -14 -14 257 -55 298 -4 4 -51 -29 -102 -75z"/>
<path d="M2941 3799 c-33 -45 -22 -100 25 -122 31 -15 37 -15 68 0 50 23 62
75 28 121 -20 26 -31 32 -61 32 -30 0 -42 -6 -60 -31z"/>
<path d="M2638 3591 c-54 -10 -101 -21 -105 -25 -22 -21 144 -236 182 -236 15
0 107 224 103 252 -2 19 -10 23 -43 25 -22 1 -84 -7 -137 -16z"/>
<path d="M3187 3603 c-4 -3 -7 -14 -7 -23 0 -19 87 -239 100 -253 14 -16 136
115 169 180 l31 63 -22 5 c-122 27 -258 41 -271 28z"/>
<path d="M2966 3488 c-8 -13 -39 -68 -69 -123 l-56 -100 47 -12 c60 -14 145
-16 212 -3 30 6 55 12 57 13 3 4 -113 215 -129 235 -16 19 -46 14 -62 -10z"/>
<path d="M1143 2063 l-33 -4 0 -265 0 -264 50 0 50 0 0 83 1 82 35 -40 c19
-22 47 -59 62 -82 27 -43 28 -43 85 -43 l59 0 -23 38 c-24 39 -82 114 -113
145 -18 19 -17 20 31 71 27 28 59 63 72 79 l24 27 -59 0 -59 0 -54 -65 c-30
-36 -56 -63 -58 -61 -3 3 -4 72 -4 155 2 167 9 153 -66 144z"/>
<path d="M1970 2061 l-35 -6 -3 -254 c-1 -140 2 -259 7 -264 4 -4 51 -11 102
-14 85 -4 98 -2 139 19 63 32 90 83 90 168 0 82 -29 145 -80 172 -28 16 -48
18 -97 14 l-63 -5 0 89 c0 66 -3 90 -12 89 -7 -1 -29 -4 -48 -8z m175 -266
c36 -35 36 -121 -1 -164 -22 -26 -33 -31 -70 -31 l-44 0 0 100 c0 84 3 101 18
109 30 18 72 12 97 -14z"/>
<path d="M3941 1993 l-33 -4 3 -193 c3 -162 7 -196 22 -219 28 -43 71 -60 143
-55 35 2 66 7 70 10 3 4 4 22 0 41 -6 34 -6 34 -55 29 -68 -6 -81 15 -81 125
l0 83 65 0 65 0 0 40 0 40 -65 0 -65 0 0 55 c0 60 4 57 -69 48z"/>
<path d="M2460 1893 c-69 -26 -110 -94 -110 -183 0 -77 18 -120 66 -156 35
-27 44 -29 128 -29 116 0 123 3 118 49 l-4 35 -58 -6 c-32 -3 -70 -3 -84 1
-31 8 -66 40 -66 61 0 13 20 15 121 15 l122 0 -6 62 c-9 99 -69 159 -161 157
-28 0 -58 -3 -66 -6z m113 -90 c8 -10 17 -27 19 -38 3 -18 -3 -20 -69 -23 -68
-3 -73 -1 -73 18 0 51 88 82 123 43z"/>
<path d="M2823 1888 l-43 -11 0 -173 0 -174 50 0 49 0 3 143 3 142 57 -2 57
-2 7 35 c3 19 3 38 0 42 -12 11 -139 11 -183 0z"/>
<path d="M3145 1896 c-5 -3 -22 -7 -37 -10 l-28 -6 0 -175 0 -175 50 0 50 0 0
145 0 145 38 0 c66 0 76 -21 80 -166 l4 -124 46 0 47 0 -2 135 c-2 146 -9 174
-56 209 -22 16 -45 21 -105 23 -42 1 -81 1 -87 -1z"/>
<path d="M3590 1889 c-67 -27 -104 -90 -104 -179 0 -125 65 -190 188 -190 107
0 135 14 122 63 -5 22 -10 23 -87 22 -76 0 -82 2 -105 28 -13 15 -24 32 -24
38 0 5 54 9 126 9 l127 0 -7 57 c-12 106 -69 163 -160 162 -28 0 -62 -5 -76
-10z m120 -89 c11 -11 20 -29 20 -40 0 -19 -5 -21 -72 -18 -67 3 -73 5 -70 23
8 51 84 73 122 35z"/>
<path d="M4305 1886 c-70 -31 -112 -119 -101 -209 7 -66 38 -111 92 -138 39
-18 58 -21 125 -17 44 3 85 10 90 15 6 6 8 24 4 41 l-6 30 -74 -5 c-72 -6 -74
-5 -104 25 -17 17 -31 35 -31 41 0 7 41 11 120 11 l120 0 0 53 c0 60 -23 112
-62 141 -35 25 -130 32 -173 12z m125 -86 c11 -11 20 -29 20 -40 0 -19 -5 -21
-72 -18 -67 3 -73 5 -70 23 10 54 82 75 122 35z"/>
<path d="M4680 1882 c-49 -24 -69 -81 -47 -134 13 -30 27 -42 86 -69 38 -18
72 -38 75 -44 13 -35 -34 -48 -121 -32 -42 7 -43 7 -51 -25 -5 -18 -6 -37 -1
-42 10 -12 138 -20 182 -12 55 10 87 47 87 99 0 58 -20 82 -101 121 -37 18
-65 38 -67 48 -5 26 39 40 91 28 46 -10 57 -3 57 41 0 19 -6 28 -22 33 -46 12
-133 6 -168 -12z"/>
<path d="M1512 1748 c3 -130 5 -146 26 -175 31 -44 78 -57 179 -50 46 3 88 9
93 12 6 4 10 77 10 181 l0 174 -45 0 -44 0 -3 -142 -3 -143 -37 -3 c-27 -2
-43 3 -57 17 -19 19 -21 33 -21 146 l0 125 -51 0 -51 0 4 -142z"/>
</g>
</svg>
